<svg xmlns="http://www.w3.org/2000/svg" xmlns:xlink="http://www.w3.org/1999/xlink" id="Ebene_1" x="0px" y="0px" viewBox="0 0 155 165" xml:space="preserve"> <g> <path fill="#1A1A18" d="M142.7,115.3l-0.6-0.3c5.1-10.2,7.7-21.1,7.7-32.6c0-6.7-0.9-13.3-2.7-19.7l0.7-0.2 c1.8,6.4,2.7,13.1,2.7,19.9C150.5,94,147.9,105.1,142.7,115.3z"></path> <path fill="#1A1A18" d="M12.3,115.3C7.1,105.1,4.5,94,4.5,82.4c0-6.8,0.9-13.4,2.7-19.9l0.7,0.2c-1.8,6.4-2.7,13-2.7,19.7 c0,11.5,2.6,22.4,7.7,32.6L12.3,115.3z"></path> <g> <path fill="#1A1A18" d="M26,126.8l-8.1,6.7l-1.3-1.5l8.1-6.7l-2.1-2.5l0.8-0.7l5.5,6.5l-0.8,0.7L26,126.8z"></path> <path fill="#1A1A18" d="M27.4,142.9l-0.1-6.8l-3.3,3.7l-1.5-1.3l7.7-8.6l3,2.7c1.8,1.6,2.1,3.9,0.8,5.3c-1.2,1.3-3.2,1.3-4.7,0.1 l0.1,6.6L27.4,142.9z M27.8,135.6l1.1,1c1,0.9,2.4,1.1,3.5-0.1c1.1-1.2,0.7-2.6-0.3-3.5l-1.1-1L27.8,135.6z"></path> <path fill="#1A1A18" d="M35.7,149c-2.2-1.4-2.9-4-1.3-6.5l3.7-5.8l1.7,1.1l-3.6,5.8c-1.3,2-1.3,3.7,0.1,4.6s2.9,0.1,4.2-1.9 l3.6-5.8l1.7,1.1l-3.7,5.8C40.5,149.9,37.9,150.4,35.7,149z"></path> <path fill="#1A1A18" d="M43.9,153.5l4.5-10.7l6.8,2.9l-0.4,1l-4.9-2.2l-1.6,3.8l4.7,2l-0.4,1l-4.7-2l-1.7,4l5,2l-0.4,1L43.9,153.5 z"></path> <path fill="#1A1A18" d="M67.9,160.4l0.8-5.4l-5.1-0.8l-0.8,5.4l-2-0.3l1.8-11.4l2,0.3l-0.8,5l5.1,0.8l0.8-5l2,0.3l-1.8,11.4 L67.9,160.4z"></path> <path fill="#1A1A18" d="M74.7,161l-0.2-11.5l7.3-0.1l0,1.1l-5.3,0l0.1,4.2l5.1-0.1l0,1.1l-5.1,0l0.1,4.3l5.3-0.2l0,1.1L74.7,161z"></path> <path fill="#1A1A18" d="M92.8,159.5l-5.3-4.2l0.8,4.9l-2,0.3l-1.8-11.4l4-0.6c2.4-0.4,4.3,0.8,4.6,2.8c0.3,1.7-0.9,3.3-2.9,3.8 l5.2,4.1L92.8,159.5z M87.4,154.6l1.5-0.2c1.3-0.2,2.4-1.2,2.1-2.8c-0.3-1.6-1.6-2.2-2.9-2l-1.5,0.2L87.4,154.6z"></path> <path fill="#1A1A18" d="M98.4,158.1L95.2,147l2-0.6l3.2,11.1L98.4,158.1z"></path> <path fill="#1A1A18" d="M104.5,144.9l4,9.7l-1.9,0.8l-4-9.7l-3,1.3l-0.4-1l7.9-3.3l0.4,1L104.5,144.9z"></path> <path fill="#1A1A18" d="M120.2,148.3l-3.5-2.5l-3.6,2.1l0.5,4.3l-1.1,0.7l-1.3-12.8l0.5-0.3l10.5,7.3L120.2,148.3z M112.5,142.7 l0.5,4.1l2.9-1.7L112.5,142.7z"></path> <path fill="#1A1A18" d="M128.7,142.1c-2.5,2.1-6.2,1.8-8.3-0.6c-2.1-2.5-1.8-6.2,0.6-8.3c1.4-1.2,3.1-1.6,5-1.3l-0.2,1.4 c-1.6-0.4-3.1-0.1-4.1,0.7c-1.6,1.4-1.5,4.1,0.3,6.2c1.7,2,4.4,2.6,6,1.2c1.6-1.3,1.4-3.7,0-5.4l-2.7,2.4l-0.7-0.8l4.4-3.7 l0.2,0.3C131.2,136.4,131.3,139.9,128.7,142.1z"></path> <path fill="#1A1A18" d="M135.6,135.3l-8.9-7.4l4.7-5.7l0.9,0.7l-3.5,4l3.2,2.7l3.3-4l0.8,0.7l-3.3,3.9l3.3,2.7l3.3-4.2l0.9,0.7 L135.6,135.3z"></path> </g> <g> <path fill="#1A1A18" d="M16.4,54.6l-10-5.1l3-5.9l0.7,0.4l-2.5,4.7l4,2l2.3-4.6l0.7,0.4l-2.4,4.5l4.1,2.1l2.3-4.8l0.7,0.4 L16.4,54.6z"></path> <path fill="#1A1A18" d="M14.5,35.7c1-1.4,2.2-2,3.3-2.4l0.3,1.1c-1.3,0.1-2.4,0.7-3,1.6c-1.4,2-0.6,4.7,1.6,6.3 c2.3,1.7,5.2,1.4,6.5-0.4c1-1.4,0.9-3,0.8-3.8l0.6-0.1c0.2,1.1,0.1,2.9-0.9,4.3c-1.8,2.4-5.2,3-7.8,1.1 C13.3,41.6,12.8,38.1,14.5,35.7z"></path> <path fill="#1A1A18" d="M32.8,32.3L29,28.4l-4.2,4.1l3.8,3.9l-0.9,0.9l-7.8-8l0.9-0.9l3.6,3.6l4.2-4.1l-3.6-3.6l0.9-0.9l7.8,8 L32.8,32.3z"></path> <path fill="#1A1A18" d="M32.8,18.9l6.1,8.5l-1,0.7l-6.1-8.5l-2.6,2L28.8,21l6.3-4.5l0.4,0.6L32.8,18.9z"></path> <path fill="#1A1A18" d="M43.5,24.5l-5.2-9.9l5.8-3.1l0.4,0.7l-4.8,2.4l2.1,4l4.5-2.4l0.4,0.7l-4.5,2.4l2.2,4.1l4.7-2.6l0.4,0.7 L43.5,24.5z"></path> <path fill="#1A1A18" d="M61.7,17.3c-3.1,0.8-6.2-1.1-6.9-4.2C54,10,55.9,6.9,58.9,6.1c1.7-0.4,3.4-0.1,4.8,0.9L63,8 c-1.2-1-2.7-1.5-3.9-1.2c-2.4,0.6-3.7,3.2-3,6c0.7,2.7,3.1,4.4,5.4,3.8c2.3-0.6,3.5-3,2.9-5.3l-3.9,1l-0.2-0.7l5.3-1.3l0,0.2 C66.3,13.5,64.8,16.5,61.7,17.3z"></path> <path fill="#1A1A18" d="M69.4,15.7L68.6,4.5L75.2,4l0.1,0.8l-5.3,0.3l0.3,4.5l5.1-0.4l0.1,0.8l-5.1,0.3l0.3,4.6l5.3-0.5l0.1,0.8 L69.4,15.7z"></path> <path fill="#1A1A18" d="M82,15.6c-2.2-0.1-3.5-1.6-3.6-3.1l1.1-0.2c0,1.3,1.2,2.6,2.6,2.7c1.4,0.1,2.7-0.8,2.8-2.2 c0.1-1.2-0.7-1.9-2.7-2.5c-2.4-0.7-3.1-1.7-3-3.1c0.1-1.8,1.8-3,3.8-2.9c2,0.1,3.2,1.5,3.4,2.7L85.2,7c-0.1-1.1-1.2-2.1-2.4-2.2 c-1.3-0.1-2.4,0.7-2.5,1.9c-0.1,1.1,0.7,1.6,2.5,2.2c2.5,0.8,3.3,1.9,3.2,3.5C85.9,14.4,84.1,15.7,82,15.6z"></path> <path fill="#1A1A18" d="M95.7,6.1c1.7,0.4,2.7,1.3,3.5,2.1l-0.9,0.7c-0.6-1.1-1.6-1.9-2.7-2.1c-2.4-0.5-4.6,1.3-5.2,4 c-0.6,2.8,0.7,5.3,2.9,5.8c1.7,0.4,3.1-0.3,3.8-0.7l0.3,0.5c-0.9,0.6-2.6,1.3-4.3,0.9c-2.9-0.7-4.8-3.6-4.1-6.8 C89.8,7.3,92.8,5.4,95.7,6.1z"></path> <path fill="#1A1A18" d="M105.9,21.5l2.1-5l-5.4-2.3l-2.1,5l-1.2-0.5l4.3-10.4l1.2,0.5l-2,4.7l5.4,2.3l2-4.7l1.2,0.5L107.1,22 L105.9,21.5z"></path> <path fill="#1A1A18" d="M110.3,23.8l5.6-9.7l1.1,0.6l-5.6,9.7L110.3,23.8z"></path> <path fill="#1A1A18" d="M125.2,20.1c1.4,1,2,2.3,2.3,3.3l-1.1,0.3c-0.1-1.3-0.7-2.4-1.6-3.1c-1.9-1.5-4.7-0.7-6.4,1.5 c-1.7,2.3-1.5,5.1,0.3,6.5c1.4,1,3,1,3.8,0.9l0.1,0.6c-1.1,0.2-2.9,0.1-4.3-1c-2.4-1.8-2.9-5.2-0.9-7.9 C119.3,18.8,122.8,18.3,125.2,20.1z"></path> <path fill="#1A1A18" d="M128.2,38.4l3.9-3.7l-4-4.3l-3.9,3.7l-0.9-0.9l8.1-7.7l0.9,0.9l-3.7,3.5l4,4.3l3.7-3.5l0.9,0.9l-8.1,7.7 L128.2,38.4z"></path> <path fill="#1A1A18" d="M141.6,38.7l-8.6,6l-0.7-1l8.6-6l-1.9-2.6l0.6-0.4l4.4,6.4l-0.6,0.4L141.6,38.7z"></path> <path fill="#1A1A18" d="M135.9,49.3l10-5.1l3,5.9l-0.7,0.4l-2.3-4.8l-4,2l2.3,4.6l-0.7,0.3l-2.3-4.6l-4.1,2.1l2.5,4.7l-0.7,0.4 L135.9,49.3z"></path> </g> <g id="Map_00000117658092432714652170000013024821496535470227_"> <g id="Baden-Baden_62340_AL6_00000049925085949298264740000016731292050762932369_"> <path id="_x36_2340_00000092438755226864986000000014959864965159207612_" fill="#1A1A18" d="M34.5,99.3c0.1-1.6,0.7,0,1.7-1.3 c2.2-1.7,1.1-2.6,2.5-1c1.5-3.6,3-1.1,1.5,1.2c1-0.2,2.3,1.1,2.4,0.3c1.2,0.5,2.3,1.1,2.2-0.7c1.9-1.3,0.1-3.9,1.5-3.3 c0-0.7,2.6-2.4,0.9-2.3c1-1,2.4-2.3,3.5-1.2c1.2,1.1,2-1.4,3.1,0.1c0.8,0.6,1.5,0.2,2.4,0.3c1.8,0.3,2,0.9,3.9,0.1 c0.3,0,0.5-0.7,0.7-0.3c0.3,0.4,0.4-0.5,0.7-0.6c0.4-0.5,2.4,1.8,2.3-0.1c-0.8,0-1.4,0.5-0.5-0.4c-0.5,0.1-1.9,0.6-1.5-0.4 c-0.2,0.1-0.6-0.1-0.3,0.2c-0.2,1-1.1,0.2-0.5-0.5c0.1-1-0.2-0.9,0.8-1.1c6.5-3.8,7.7-1,5.9-7.7c-2.1-0.7-2-4-4.4-3.5 c-4.6-5.3-2.4-8.8-12.4-9.1c-0.5,0.6-0.5-1.1-0.9-0.5c-0.1-1-0.9-1.5-1.7-2.1c12.1-10.2,2.9-5.8,7.2-11.6 c0.7,0.5,0.6-0.1,0.9-0.5c0.1-0.1-0.4-0.3-0.4-0.4c2.9-3.1-2.1-2.2,1.1-3.6c0,0-0.4-0.4-0.4-0.4c2.6-2.5,5.1-5.1,7.7-7.5 c1.2-0.6-0.2-1.3-0.7-1.9c-0.2-0.6-0.7-0.7-1.2-0.3c-1.9,1.3-4.5,0-6.2,1.5c-1.6-1-1,5.1-3.4,1.3c0.2-1.1,2.7-0.9,0.2-2.1 c1.7-0.9,0.9-1.2,0.6-2.7c-0.5-3-1.8,1.1-2.3-3.3c1.6,1.7,4.1-0.6,4.2,2.4c0.2,1.9,0.4,0.9,1.5,0.6c5.7,0.4,0.5-2.7,6.3,1.8 c0.9,0.9,1.8,2.8,3.3,3c1.1,0.6,0.8-1.3,1.2,0.1c1.2,1.3-0.4,3.4,1.4,2.1c0.4-0.2,0.5-0.7,1-0.4c2.1-0.4,1.2-1,1.7,1.9 c1.5-0.8,2,2.1,3.1,0.3c1.7,7.3,11,6.4,12,14.2c0.7,0.9-1.3,3.1,0.1,2.8c0.7-0.1,0.8,0.1,1.3-0.7c0.4,0,1.2,0.7,1.1,0 c1-0.5,2.4-1.6,3.6-0.6c0.9-0.3-0.2,0.6,0.4,1.1c-1,0.6-0.1,1.9,0.5,2.3c1,0.5-0.1,2.2,1.2,2.4c0.4,0.6,0.7-1.5,1.1-0.7 c0,0,0.2-0.2,0.1-0.3c0.2-0.1,0.2-0.8-0.1-0.3c0,0-0.2-0.2-0.2-0.2c0.3-0.1,0.5-0.5,0.8-0.7c0.2,0.5,0.6-0.1,1-0.2 c0.1-0.2,0.5-0.6,0.6-0.3c-2.7,2.3,5.7,0.2,1.6,2.6c0.9,0.3-1.5,0.7-0.6,1c0.7,0.4-0.6,0.9-0.3,1.4c2.1,4.1-2.7,5.2-3.4,9.1 c2.9,1.9,0.1,4.9,3.2,4.9c2.3-0.4,4.2,3.5,4.5,5.5c2.3,4.2,4.6,0.7,6,6.3c0.9,5.9,3.1,18.3-4.9,19.3c-6.9,7.2,2.7,5-10,14.9 c-0.4,2.4-3.1,0.4-4.9,0.9c-2.4,1.3-1.6-0.2-3.8,0.1c-4.3,1.3-7.4,2.6-7.2-3.4c0.6-2.7-1.2-1.8-1-4.2c-0.1-1,1.1-4.3-0.8-3.9 c-3.4-0.9,1.8-3.2,0.7-5c-0.1-0.6,0-0.6-0.5-0.2c-0.7,0.7-1.8,1.7-2.6,2.2c0,0,0.4,0.4,0.2,0.4c-1.6,0-2.6-1.8-3.6-2.9 c-1.1-0.3,0.3-2-0.3-2.7c-2.5-1.2-0.4-1.4-3.9-1.3c1.3-0.8,0.2-0.7,0-1.6c-1.1,0.8-1.2-3.4-1.8-0.7c-1.3,1.6-0.3-1.8-0.5-1.8 c0-0.2-0.4-1.6-0.8-0.9c-0.3,0.3-0.6,0.7-0.3,1.1c-1.3,0.1-2.5,0.9-3.5,0.9c-0.1,0.5-0.9,0.6-0.7,1c0.2,0,0.1,0.3-0.1,0.1 c0-0.2-0.4,0-0.5,0c-0.8-0.3-0.1-0.3-0.5-0.6c-0.2,0.2-0.3-0.3-0.5-0.3c-1.1,0.6-1.7-2.7-2.5-1.6c-5.5-2.2,0,1.8-5-0.6 c-0.1-0.3-0.1,0.4-0.2,0.2c-0.7-0.6-0.9,0-1.2,0.3c-0.1,1.4-4.3-1.6-5.5-1.6c-2.5-2.9-3.1-2.1-6.4-3 C34.5,100.4,39.1,98.1,34.5,99.3z M67.9,91.1c0.3,1.5,0.5,3.9,2.6,3.6c0.5-0.2,0.5,0.8,1,0.5c1.6-0.9,0.9,0.1,2.6-0.1 c0.2-1.5-1.3-1.3-2.2-1.8C70.1,90.5,71.2,87.1,67.9,91.1z M71.5,103.5c2.1,0.9,1.9,1.9,4.2,0.4c-0.2-0.5-0.8-1.2-0.4-1.7 C73.4,100.5,72.7,102.5,71.5,103.5z M64.6,89.3c0.5,0.9,1.4,1,1.9,0C65.7,88.4,65.3,88.1,64.6,89.3z M39.3,83.3 c2.5-4.2,1.2-1.1,2.2,0.9C41.1,84.2,39.9,83.5,39.3,83.3z M41,88.3c2.3-0.5-0.3-3.5,3.2-2.3c0.2,0.5-1,0.7-0.2,1.2 c-0.3,1-2,1.2-2.7,1.8C41.1,89.2,41.1,88.4,41,88.3z M37,92.4c0.8-1.8,0.7,1.4,2.8-2.2c0.8-1.1,0.7-0.3,0.1,0.3 C40.6,91.1,37.8,93.4,37,92.4z"></path> </g> </g> </g> </svg>