<svg xmlns="http://www.w3.org/2000/svg" xmlns:xlink="http://www.w3.org/1999/xlink" id="Ebene_1" x="0px" y="0px" viewBox="0 0 155 165" xml:space="preserve"> <g> <path fill="#1A1A18" d="M139,121.9l-0.6-0.4c7.5-11.6,11.4-25.1,11.4-39c0-8.5-1.5-16.8-4.3-24.7l0.7-0.2c2.9,8,4.4,16.3,4.4,24.9 C150.5,96.5,146.5,110.2,139,121.9z"></path> <path fill="#1A1A18" d="M16,121.9C8.5,110.1,4.5,96.5,4.5,82.5c0-8.6,1.5-17.1,4.4-25.1l0.7,0.2C6.7,65.6,5.2,74,5.2,82.5 c0,13.9,3.9,27.3,11.4,39L16,121.9z"></path> <g> <path fill="#1A1A18" d="M32.4,133.2l-7.1,7.7l-1.5-1.4l7.1-7.7l-2.4-2.1l0.7-0.8l6.3,5.8l-0.7,0.8L32.4,133.2z"></path> <path fill="#1A1A18" d="M35.9,149l-1-6.7l-2.8,4.1l-1.7-1.1l6.5-9.5l3.3,2.3c2,1.3,2.6,3.6,1.5,5.2c-1,1.4-2.9,1.7-4.7,0.8l1,6.5 L35.9,149z M35.2,141.8l1.2,0.8c1.1,0.7,2.6,0.8,3.5-0.6c0.9-1.4,0.3-2.7-0.8-3.4l-1.2-0.8L35.2,141.8z"></path> <path fill="#1A1A18" d="M44.9,153.9c-2.4-1.1-3.4-3.6-2.2-6.3l2.9-6.2l1.8,0.8l-2.8,6.2c-1,2.1-0.8,3.8,0.7,4.5 c1.6,0.7,2.9-0.3,3.9-2.4l2.8-6.2l1.8,0.8l-2.9,6.2C49.8,154.2,47.3,155,44.9,153.9z"></path> <path fill="#1A1A18" d="M53.5,157.2l3-11.1l7.1,1.9l-0.3,1.1l-5.1-1.5l-1.1,4l4.9,1.3l-0.3,1.1l-4.9-1.4l-1.1,4.1l5.2,1.3 l-0.3,1.1L53.5,157.2z"></path> <path fill="#1A1A18" d="M75.4,156.1l-2.2-0.1l-0.2,4.8l-2-0.1l0.4-11.5l4.3,0.2c2.1,0.1,3.6,1.6,3.5,3.5 C79.1,154.8,77.6,156.2,75.4,156.1z M74.9,150.4l-1.5-0.1l-0.2,4.7l1.5,0.1c1.3,0,2.3-0.8,2.4-2.3 C77.2,151.3,76.2,150.4,74.9,150.4z"></path> <path fill="#1A1A18" d="M82.8,160.8l-1.3-11.5l7.3-0.8l0.1,1.1l-5.3,0.5l0.5,4.1l5.1-0.6l0.1,1.1l-5.1,0.5l0.5,4.3l5.3-0.7 l0.1,1.1L82.8,160.8z"></path> <path fill="#1A1A18" d="M99.5,157.9c-3.1,0.9-6.4-0.9-7.3-4c-0.9-3.1,0.9-6.4,4-7.3c3.1-0.9,6.4,0.9,7.3,4 C104.4,153.7,102.6,157,99.5,157.9z M96.4,147.6c-2,0.6-3,3.1-2.3,5.8c0.8,2.6,3,4.2,5,3.6c2-0.6,3-3.1,2.3-5.7 C100.7,148.6,98.5,147,96.4,147.6z"></path> <path fill="#1A1A18" d="M110.6,148.3l-2,1l2.1,4.3l-1.8,0.9l-5.1-10.4l3.8-1.9c1.9-0.9,3.9-0.3,4.8,1.4 C113.2,145.4,112.5,147.4,110.6,148.3z M107.4,143.5l-1.3,0.7l2.1,4.2l1.3-0.7c1.1-0.6,1.7-1.8,1-3.1 C109.8,143.3,108.5,142.9,107.4,143.5z"></path> <path fill="#1A1A18" d="M119.2,148.9l-6.5-9.5l1.7-1.1l5.9,8.7l4.3-3.1l0.6,0.9L119.2,148.9z"></path> <path fill="#1A1A18" d="M128.1,142.5l-7.8-8.5l5.4-5l0.8,0.8l-4,3.5l2.8,3l3.7-3.5l0.7,0.8l-3.8,3.4l2.9,3.1l3.8-3.7l0.8,0.8 L128.1,142.5z"></path> </g> <g> <path fill="#1A1A18" d="M18.6,50.3l-9.6-5.8l3.4-5.6l0.7,0.4l-2.9,4.5l3.8,2.3l2.6-4.4l0.7,0.4l-2.7,4.3l3.9,2.4l2.7-4.6l0.7,0.4 L18.6,50.3z"></path> <path fill="#1A1A18" d="M18.2,31.3c1.1-1.3,2.4-1.9,3.5-2.1l0.2,1.1c-1.3,0-2.4,0.6-3.1,1.4c-1.6,1.9-0.9,4.7,1.2,6.4 c2.2,1.9,5,1.8,6.5,0.1c1.1-1.3,1.2-2.9,1.1-3.7l0.6,0c0.1,1.1-0.1,2.9-1.2,4.2C25,41,21.5,41.4,19,39.2 C16.5,37.1,16.3,33.6,18.2,31.3z"></path> <path fill="#1A1A18" d="M36.6,29.3l-3.5-4.1l-4.5,3.8l3.5,4.1l-1,0.8l-7.2-8.6l1-0.8l3.3,3.9l4.5-3.8l-3.3-3.9l1-0.8l7.2,8.6 L36.6,29.3z"></path> <path fill="#1A1A18" d="M37.6,16l5.5,9L42,25.6l-5.5-9l-2.7,1.7l-0.4-0.7l6.6-4l0.4,0.7L37.6,16z"></path> <path fill="#1A1A18" d="M47.9,22.3L43.4,12l6-2.6l0.3,0.7l-4.9,2l1.8,4.1l4.7-2.1l0.3,0.7l-4.7,2l1.8,4.2l4.8-2.2l0.3,0.7 L47.9,22.3z"></path> <path fill="#1A1A18" d="M73.1,15.4l-4-8.2l-1.8,9.5l-4.7-8.4l-1.4,9l-0.9,0.1l2-12l4.7,8.4l2-9.4l5.5,10.9L73.1,15.4z"></path> <path fill="#1A1A18" d="M76.4,15.4l0.3-11.2l6.6,0.2l0,0.8L78,4.9l-0.1,4.5L83,9.5l0,0.8l-5.1-0.2l-0.1,4.6l5.3,0.1l0,0.8 L76.4,15.4z"></path> <path fill="#1A1A18" d="M88.3,7.3L86.8,16L86,15.9l2.2-11.4L94.2,15l1.5-8.7l0.8,0.2l-2.2,11.4L88.3,7.3z"></path> <path fill="#1A1A18" d="M100.3,19.6c-2-0.7-2.9-2.5-2.6-4l1.1,0.1c-0.4,1.3,0.5,2.8,1.8,3.3c1.4,0.5,2.8-0.1,3.3-1.3 c0.4-1.2-0.2-2-1.9-3.2c-2.1-1.4-2.5-2.5-2-3.8c0.6-1.7,2.6-2.4,4.4-1.7c1.9,0.7,2.7,2.3,2.5,3.5l-1.1-0.1 c0.2-1.1-0.6-2.4-1.7-2.8c-1.2-0.4-2.5,0-2.9,1.1c-0.4,1,0.2,1.8,1.8,2.8c2.2,1.5,2.6,2.7,2.1,4.3 C104.4,19.6,102.3,20.3,100.3,19.6z"></path> <path fill="#1A1A18" d="M116.2,14.3c1.5,0.8,2.3,2,2.7,3l-1.1,0.4c-0.3-1.2-1-2.3-2-2.8c-2.1-1.2-4.8,0-6.1,2.4 c-1.4,2.5-0.8,5.3,1.2,6.4c1.5,0.8,3.1,0.6,3.9,0.4l0.2,0.6c-1.1,0.3-2.9,0.5-4.4-0.4c-2.6-1.4-3.6-4.8-2-7.7 C110.1,13.8,113.6,12.9,116.2,14.3z"></path> <path fill="#1A1A18" d="M121.7,32l3.4-4.2l-4.6-3.7l-3.4,4.2l-1-0.8l7-8.7l1,0.8l-3.2,4l4.6,3.7l3.2-4l1,0.8l-7,8.7L121.7,32z"></path> <path fill="#1A1A18" d="M125,35.1l8.3-7.5l4.4,4.9l-0.6,0.5l-3.5-4l-3.3,3l3.5,3.8l-0.6,0.5l-3.4-3.8l-3.4,3.1l3.7,3.9l-0.6,0.5 L125,35.1z"></path> <path fill="#1A1A18" d="M139.1,38.1l-7.3,4.9l-0.5-0.7L141,36l-3.4,11.7l7.3-4.9l0.5,0.7l-9.7,6.3L139.1,38.1z"></path> </g> <g> <path fill="#1A1A18" d="M55.4,96.2L53.5,95l2.1-0.5c0,0,2.9-1,3-7.8l0-1.5c0.1-8.1,0.3-21.4,8.7-23c-1.6-8.8-8.2-11.6-11.9-11.5 c-3,0-4.6,1-5.4,1.5c-0.3,0.2-0.7,0.4-1.1,0.4c-0.7,0.1-1.9,0.5-3.1,1.4c-3.2,2.9-2.9,6.1-3.7,13.8c-0.8,7.7-3.3,8.8-1.1,11.5 c2.1,2.6,6.9,2.4,7.5,2.3c0,0,0.1,0,0.1,0.1c0,2.9-2.3,5.2-5.2,5.2H42c-2.9,0-5.2,2.3-5.2,5.2v5.2c0,0,0,0.1,0.1,0.1h20.5 C56.7,97,56,96.6,55.4,96.2z"></path> <path fill="#1A1A18" d="M89.5,99.6c-3.5-0.9-4.9-1-6.2-2.5c3.1,2,10.8,1,10.8,1s-4.3-4.3-4-16.6s-2.8-16.1-7.8-19.4 c-5-3.3-13.1-1.8-13.5,0.8c-9.5,0.4-9,16-9.2,23.8c-0.1,7.8-3.8,8.7-3.8,8.7c3.4,2.2,6.5,2.6,9,2.3C64,98.2,63,98.6,62,98.8 c-4.9,1.2-8.3,5.6-8.3,10.6v4.1h41.7V107C95.4,103.5,93,100.4,89.5,99.6z"></path> <path fill="#1A1A18" d="M107.6,86.7c-2.7,0-4.9-2.2-4.9-4.9V80c0-0.5,0.2-1,0.5-1.4c0.6-0.8,1.5-2.3,1.8-4.3 c0.1-0.5,0.3-1,0.6-1.4c1-1,2.3-2.4,1.4-5.8c-0.1-0.5-0.1-1.1,0.1-1.6c1.1-2.9,1.4-4.6,1.2-8.1c-0.2-3.7-8-10.6-15-7 c-0.5,0.2-1,0.4-1.5,0.3c-2.7-0.3-6.6,0.9-8,5.8c-0.4,1.5-0.5,3.2-0.5,4.9c5.2,3.6,8,8,7.7,19.9c-0.3,11.6,3.7,15.8,3.8,15.9l0,0 h19.9v-3.6C114.7,89.9,111.5,86.7,107.6,86.7z"></path> </g> </g> </svg>