<svg xmlns="http://www.w3.org/2000/svg" xmlns:xlink="http://www.w3.org/1999/xlink" id="Ebene_1" x="0px" y="0px" viewBox="0 0 155 165" xml:space="preserve"> <g> <path fill="#1A1A18" d="M146.1,107.4l-0.7-0.2c2.9-7.9,4.3-16.2,4.3-24.7c0-10.4-2.1-20.4-6.4-29.8l0.7-0.3 c4.3,9.5,6.4,19.6,6.4,30.1C150.5,91,149,99.4,146.1,107.4z"></path> <path fill="#1A1A18" d="M8.9,107.6c-2.9-8-4.4-16.5-4.4-25.2c0-10.5,2.2-20.6,6.4-30.1l0.7,0.3c-4.2,9.4-6.4,19.4-6.4,29.8 c0,8.6,1.5,16.9,4.4,24.9L8.9,107.6z"></path> <g> <path fill="#1A1A18" d="M19.9,118.5l-9,5.5l-1-1.7l9-5.5l-1.7-2.7l0.9-0.6l4.4,7.3l-0.9,0.6L19.9,118.5z"></path> <path fill="#1A1A18" d="M18.8,134.7l0.9-6.7l-3.9,3.2l-1.3-1.6l8.9-7.4l2.6,3.1c1.5,1.8,1.5,4.1,0,5.4c-1.3,1.1-3.3,0.9-4.7-0.6 l-0.9,6.5L18.8,134.7z M20.3,127.5l0.9,1.1c0.8,1,2.2,1.5,3.5,0.4c1.3-1.1,1.1-2.5,0.2-3.5l-0.9-1.1L20.3,127.5z"></path> <path fill="#1A1A18" d="M26.1,141.9c-2-1.7-2.3-4.4-0.3-6.6l4.5-5.2l1.5,1.3l-4.5,5.1c-1.5,1.8-1.9,3.4-0.6,4.6 c1.3,1.1,2.9,0.6,4.4-1.2l4.5-5.1l1.5,1.3l-4.5,5.2C30.7,143.6,28.1,143.7,26.1,141.9z"></path> <path fill="#1A1A18" d="M33.5,147.6l6-9.8l6.3,3.9l-0.6,1l-4.5-2.9l-2.2,3.5l4.4,2.7l-0.6,0.9l-4.3-2.7l-2.2,3.7l4.6,2.7l-0.6,1 L33.5,147.6z"></path> <path fill="#1A1A18" d="M49.2,155.9l3.7-11l7,2.3l-0.4,1.1l-5-1.8l-1.3,3.9l4.9,1.6l-0.3,1l-4.8-1.7l-1.4,4.1l5.1,1.6l-0.4,1.1 L49.2,155.9z"></path> <path fill="#1A1A18" d="M67.4,160.4l-2.5-5.2l-4.1,4.1l-1.5-0.3l5.2-4.9l-3.1-6.5l2.4,0.4l2.3,4.8l3.8-3.8l1.5,0.3l-4.9,4.6 l3.3,6.9L67.4,160.4z"></path> <path fill="#1A1A18" d="M77.7,156.3l-2.2,0l-0.1,4.8l-2,0l0.2-11.5l4.3,0.1c2.1,0,3.6,1.5,3.6,3.5 C81.4,154.9,79.9,156.3,77.7,156.3z M77.1,150.5l-1.5,0l-0.1,4.7l1.5,0c1.3,0,2.3-0.8,2.4-2.3C79.4,151.4,78.3,150.5,77.1,150.5z"></path> <path fill="#1A1A18" d="M85.2,160.7l-1.6-11.4l7.3-1l0.2,1.1l-5.3,0.7l0.6,4.1l5.1-0.8l0.2,1.1l-5.1,0.7l0.6,4.2l5.3-0.9l0.2,1.1 L85.2,160.7z"></path> <path fill="#1A1A18" d="M103.1,156.8l-5.8-3.5l1.5,4.8l-1.9,0.6l-3.4-11l3.9-1.2c2.3-0.7,4.4,0.2,4.9,2.1c0.5,1.7-0.5,3.4-2.3,4.1 l5.7,3.3L103.1,156.8z M97.1,152.7l1.4-0.4c1.3-0.4,2.2-1.5,1.7-3.1c-0.5-1.6-1.9-2-3.2-1.6l-1.4,0.4L97.1,152.7z"></path> <path fill="#1A1A18" d="M108.4,154.7l-4.7-10.6l1.9-0.8l4.7,10.6L108.4,154.7z"></path> <path fill="#1A1A18" d="M114.5,151.8l-5.9-9.9l6.3-3.8l0.6,1l-4.6,2.6l2.1,3.6l4.4-2.6l0.6,0.9l-4.4,2.6l2.2,3.7l4.5-2.8l0.6,1 L114.5,151.8z"></path> <path fill="#1A1A18" d="M120.1,138.6l5.3,6.1l-0.9,0.8l-7.5-8.9l0.5-0.4l11,1.5l-5.3-6.1l0.9-0.8l7.5,9l-0.4,0.3L120.1,138.6z"></path> <path fill="#1A1A18" d="M129.1,124.9c1.1-1.3,2.5-1.9,3.7-2.2l0.3,1.5c-1.3,0.1-2.4,0.4-3.1,1.2c-1.4,1.7-0.8,4.3,1.3,6.1 c2.1,1.8,4.8,1.8,6.1,0.2c1-1.2,1.1-2.8,1.1-3.6l0.9,0c0.1,1.2-0.1,3-1.3,4.5c-2,2.4-5.5,2.7-8.1,0.5 C127.4,130.9,127.1,127.3,129.1,124.9z"></path> <path fill="#1A1A18" d="M142.9,125.9l-9.9-6l3.8-6.3l1,0.6l-2.8,4.5l3.6,2.1l2.6-4.4l0.9,0.6l-2.7,4.4l3.7,2.2l2.7-4.6l1,0.6 L142.9,125.9z"></path> </g> <g> <path fill="#1A1A18" d="M20,47.7l-9.3-6.2l3.7-5.5l0.7,0.4l-3,4.4l3.7,2.5l2.8-4.3l0.6,0.4l-2.9,4.2l3.8,2.6l2.9-4.5l0.7,0.4 L20,47.7z"></path> <path fill="#1A1A18" d="M20.4,28.7c1.2-1.3,2.5-1.8,3.5-2l0.2,1.2c-1.3,0-2.4,0.5-3.2,1.3c-1.6,1.8-1.1,4.6,0.9,6.5 c2.1,2,5,2,6.5,0.4c1.2-1.3,1.3-2.9,1.3-3.7l0.6,0c0.1,1.1-0.2,2.9-1.4,4.2c-2,2.2-5.5,2.4-7.9,0.2C18.5,34.4,18.4,30.8,20.4,28.7 z"></path> <path fill="#1A1A18" d="M38.9,27.5l-3.3-4.3l-4.6,3.6l3.3,4.3l-1,0.8l-6.9-8.9l1-0.8l3.1,4l4.6-3.6l-3.1-4l1-0.8l6.9,8.9 L38.9,27.5z"></path> <path fill="#1A1A18" d="M40.5,14.2l5.1,9.2L44.5,24l-5.1-9.2l-2.8,1.6l-0.4-0.7L43,12l0.4,0.7L40.5,14.2z"></path> <path fill="#1A1A18" d="M50.4,20.9l-4-10.5l6.2-2.4l0.3,0.8l-5,1.8l1.6,4.2l4.8-1.9l0.3,0.7l-4.8,1.8l1.7,4.3l4.9-2l0.3,0.8 L50.4,20.9z"></path> <path fill="#1A1A18" d="M62.3,17.1c-2.1,0.5-3.8-0.5-4.4-2l1-0.5c0.4,1.3,1.9,2.1,3.3,1.8c1.4-0.3,2.3-1.6,2-2.9 c-0.3-1.2-1.2-1.6-3.3-1.7c-2.5,0-3.5-0.7-3.8-2.1C56.8,8,58,6.3,59.9,5.9c2-0.5,3.5,0.5,4,1.6L63,8c-0.4-1-1.8-1.7-2.9-1.4 C58.8,6.9,58,8,58.2,9.1c0.2,1.1,1.1,1.4,3,1.4c2.6,0,3.7,0.8,4.1,2.5C65.8,14.9,64.5,16.6,62.3,17.1z"></path> <path fill="#1A1A18" d="M74.2,15.3L74,4.1L80.6,4l0,0.8l-5.3,0l0.1,4.5l5.1-0.1l0,0.8L75.4,10l0.1,4.6l5.3-0.2l0,0.8L74.2,15.3z"></path> <path fill="#1A1A18" d="M90.3,16.4l-4-6l1.7,0.2c1.4,0.2,2.8-0.4,3.1-2.2c0.3-1.8-0.9-2.8-2.3-3l-2.2-0.3L85,15.6l-1.3-0.2 l1.6-11.1l3.6,0.5c2.3,0.3,3.7,2,3.4,3.8c-0.2,1.7-2,2.8-4.1,2.6l3.7,5.4L90.3,16.4z"></path> <path fill="#1A1A18" d="M93.9,17.2l3.2-10.8l1.2,0.4l-3,10.1l5.1,1.4l-0.2,0.8L93.9,17.2z"></path> <path fill="#1A1A18" d="M102.4,20L107,9.8l6,2.7l-0.3,0.7l-4.8-2.3L106,15l4.7,2.1l-0.3,0.7l-4.6-2.2l-1.9,4.2l4.9,2.1l-0.3,0.7 L102.4,20z"></path> <path fill="#1A1A18" d="M114.7,26.5l-3.7-2.4l6.1-9.4l3.3,2.2c2.2,1.4,2.1,3.3,1.4,4.4c-0.5,0.7-1.5,1.3-2.6,1.2 c0.8,1,0.8,2.4,0.1,3.4C118.6,27,117,28.1,114.7,26.5z M117.5,21.9l-2.5-1.6l-2.6,4l2.5,1.6c1.6,1.1,2.8,0,3.3-0.7 C118.8,24.3,119.1,23,117.5,21.9z M119.9,17.4l-2.1-1.4l-2.4,3.7l2.1,1.4c1.4,0.9,2.5,0.5,3.2-0.5 C121.3,19.5,121.2,18.3,119.9,17.4z"></path> <path fill="#1A1A18" d="M126.2,24.1l-5.9,6.6l-0.6-0.6l7.8-8.5l-0.4,12.2l5.9-6.6l0.6,0.6l-7.8,8.5L126.2,24.1z"></path> <path fill="#1A1A18" d="M128.5,38.8l8.6-7.2l0.8,1l-8.6,7.2L128.5,38.8z"></path> <path fill="#1A1A18" d="M133.2,45.2c-1.2-1.8-0.9-3.8,0.3-4.8l0.8,0.7c-1.1,0.8-1.3,2.5-0.5,3.7c0.8,1.2,2.3,1.6,3.4,0.9 c1-0.7,1.1-1.7,0.4-3.7c-0.9-2.3-0.5-3.5,0.7-4.3c1.5-1,3.5-0.4,4.6,1.2c1.1,1.7,0.8,3.4-0.1,4.3l-0.8-0.7 c0.8-0.7,0.9-2.3,0.3-3.2c-0.7-1.1-2-1.5-3-0.8c-0.9,0.6-0.9,1.5-0.2,3.3c0.9,2.5,0.5,3.8-0.9,4.7C136.5,47.7,134.4,47,133.2,45.2 z"></path> </g> <g> <path fill="#1A1A18" d="M50,97.6c1,2.5,2.3,4.2,3.2,5.4c3.7,4.9,7.1,2.2,4.7-1.4c-2.1-3-3.6-10-5.2-16.7c-1.4-6-5-5.2-6.4-9 c-1.4-3.8-1.7-9.2-1-16.1c0.2-2.4-11.5-0.9-11.5,0.5s0.3,5.7,0.9,16.4c0.6,10.7,4.7,23.8,7.3,27.8c2.7,4,14.3,14.1,17.3,17.3 c3,3.2,6,2.3,3.5-3C60.7,114.6,52.9,105.9,50,97.6z"></path> <path fill="#1A1A18" d="M107.1,59.8c0.7,6.9,0.4,12.4-1,16.1c-1.4,3.8-5,3-6.4,9c-1.6,6.7-3.1,13.7-5.2,16.7 c-2.4,3.5,1,6.3,4.7,1.4c0.6-0.9,1.6-2.4,2.5-4.1c-3.3,7.8-10,15.9-12,19.9c-2.5,5.2,0.5,6.2,3.5,3c3-3.2,14.7-13.4,17.3-17.3 c2.7-4,6.8-17.1,7.3-27.8c0.6-10.7,0.9-15,0.9-16.4S106.9,57.4,107.1,59.8z"></path> </g> <path fill="#1A1A18" d="M77.9,48.3c-3.8,0.8-7,3.1-8.3,7.5C66.3,60.4,53.8,68.7,46,70.5c0.2,2,0.6,3.7,1.1,5.1 c0.5,1.4,1.3,2,2.4,2.8c1.5,1.2,3.2,2.5,4.1,6.3l0.2,1.1c1.5,6.2,3,12.6,4.8,15.3c1.6,2.3,1.1,4.2-0.1,5c0,0-0.1,0-0.1,0 c5.8,9,12.4,16,18,16c7.7,0,14.3-7.6,18.9-15.6c-0.6,0-1.1-0.1-1.6-0.4c-1.1-0.8-1.7-2.7-0.1-5c1.9-2.7,3.4-9.1,4.8-15.3l0.2-1.1 c0.9-3.8,2.6-5.1,4.1-6.3c1-0.8,1.8-1.4,2.4-2.8c0.6-1.5,0.9-3.3,1.1-5.5C98.6,68.9,76.7,64.2,77.9,48.3z M81.3,97.6 C81.3,97.6,81.3,97.5,81.3,97.6c0.7-0.6,1.2-1,1.4-1.7c0.1-0.8-0.5-1.5-0.9-2.1C83.4,94.8,83.7,97.5,81.3,97.6z M78.5,97.3 c0.5-0.9,1.8-1.9,2.8-1.2c0.1,0.1,0.3,0.3,0.2,0.5l-0.1,0c-0.4-0.3-1-0.1-1.5-0.1C79.3,96.6,78.8,97.3,78.5,97.3 C78.5,97.3,78.5,97.4,78.5,97.3c-0.2,0.8-1.1,1.1-1.9,1.2c-0.7,0.1-1.8-0.1-2.2-0.6C75.8,98.5,77.2,97.8,78.5,97.3z M71.7,96.2 c0.3-0.1,0.6,0,0.8,0.1c0.3,0.2,1,0.6,1,0.9c-0.5-0.3-1.1-0.6-1.6-0.5c-0.3-0.1-0.2,0.2-0.4,0.2C71.2,96.8,71.4,96.3,71.7,96.2z M69.8,96.3c0.2,0.6,0.6,1,1.2,1.6c-0.7,0.1-1.6-0.7-1.6-1.5c0-0.8,0.4-1.7,0.9-2C70,95,69.7,95.7,69.8,96.3z M55,71.5 c0.9-0.8,2.3-2.3,6.1-1.9c6.6,0.6,7.6,2.1,8.4,2.7c0.8,0.5,0.8,1.5,0.4,1.9c-0.4,0.4-1.4-0.6-2.6-1.3c-1.3-0.7-3.9-1.8-7.3-2.2 c-1.5-0.2-3.6,0.4-4.3,0.8C54.9,71.8,55,71.5,55,71.5z M62.3,83.5c-1.6-0.1-4.4-1.6-5.1-2.7c-0.8-1.1-0.5-0.9,0.2-0.4 c0.7,0.5,3.2,2.1,5.7,2.3c2.5,0.1,3.9-0.9,4.7-1.2c0.8-0.3,1.4,0.3,0.9,0.2c-0.6-0.1-0.8,0.1-1.8,0.8 C65.7,83.2,63.9,83.6,62.3,83.5z M69.4,108.2c4,4.4,9.1,4.4,13.4,0.4c0,0,0.1,0.1,0.1,0.1C79.3,113.8,72.3,113.8,69.4,108.2z M69.1,106.7c4.8,1.1,9.9,1.3,14.6-0.3C79.7,109.1,73.2,109,69.1,106.7z M83.7,105.3c-1.8-0.3-3.3-1.8-5.2-1.5 c-0.9,0.1-1.8,0.5-2.4,1.1c-0.1,0.1-0.1,0.1-0.1,0c-1.3-1.4-3.5-1.3-4.9-0.2c-1.4,1-3.7,1.7-5.2,1c1.9,0.3,3.5-0.3,5-1.4 c1.4-1.2,3.7-1.5,5.3-0.4c0.8-0.5,1.5-0.7,2.4-0.7c2-0.3,3.6,1.3,5.3,1.9c0.8,0.3,1.8,0.3,2.7,0.2 C86.2,105.7,84.3,105.5,83.7,105.3z M95.7,80.7c-0.5,0.5-2.8,3.1-5.7,3c-2.8-0.1-4.2-1.1-4.6-1.5c-0.4-0.4-0.7-0.7-1.4-0.6 c-0.2,0-0.2,0-0.1,0c0,0,0.1,0,0.1,0c0.4,0,1.2-0.1,1.5,0c0.6,0.2,2.6,1,4.5,0.9c1.9-0.1,5-1.7,5.7-2.3 C96.4,79.7,96.2,80.1,95.7,80.7z M97.3,71.4c-0.9-0.3-2.5-1-4.3-0.8c-1.8,0.2-5.1,1.2-6.5,2.1c-1.4,0.9-3.8,2.4-4,1.2 c-0.1-0.7-0.3-1.3,0.7-2c1-0.7,4.7-1.7,7.3-2.1c2.6-0.4,3.5-0.5,7.1,1.3C98,71.4,98.1,71.8,97.3,71.4z"></path> </g> </svg>