<svg xmlns="http://www.w3.org/2000/svg" xmlns:xlink="http://www.w3.org/1999/xlink" id="Ebene_1" x="0px" y="0px" viewBox="0 0 155 165" xml:space="preserve"> <g> <path fill="#1A1A18" d="M142.6,110.2L142,110c3.2-8.3,4.8-17.1,4.8-26.1c0-3.1-0.2-6.3-0.6-9.4l0.7-0.1c0.4,3.1,0.6,6.3,0.6,9.5 C147.5,93,145.9,101.8,142.6,110.2z"></path> <path fill="#1A1A18" d="M12,110.2C8.7,101.8,7.1,93,7.1,83.9c0-3.2,0.2-6.4,0.6-9.5l0.7,0.1c-0.4,3.1-0.6,6.2-0.6,9.4 c0,9,1.6,17.8,4.8,26.1L12,110.2z"></path> <g> <path fill="#1A1A18" d="M23.2,121.2l-8.5,5.7l-1.1-1.7l8.5-5.7l-1.8-2.6l0.9-0.6l4.5,7l-0.9,0.6L23.2,121.2z"></path> <path fill="#1A1A18" d="M22.7,137.1l0.7-6.6l-3.6,3.3l-1.3-1.5l8.3-7.5l2.6,3c1.5,1.8,1.5,4,0.1,5.3c-1.2,1.1-3.2,0.9-4.5-0.4 l-0.6,6.4L22.7,137.1z M23.8,130l0.9,1.1c0.8,1,2.2,1.4,3.4,0.3c1.2-1.1,1-2.5,0.1-3.5l-0.9-1.1L23.8,130z"></path> <path fill="#1A1A18" d="M29.9,144c-2-1.6-2.3-4.2-0.5-6.5l4.1-5.2l1.5,1.2l-4.1,5.2c-1.4,1.8-1.7,3.4-0.4,4.5 c1.3,1.1,2.8,0.5,4.2-1.3l4.1-5.2l1.5,1.2l-4.1,5.2C34.4,145.4,31.9,145.6,29.9,144z"></path> <path fill="#1A1A18" d="M37.2,149.2l5.5-9.9l6.1,3.6l-0.5,1l-4.4-2.7l-2,3.5l4.3,2.5l-0.5,0.9l-4.3-2.5l-2,3.7l4.5,2.5l-0.5,1 L37.2,149.2z"></path> <path fill="#1A1A18" d="M60.3,147.2c1.6,0.5,2.7,1.5,3.4,2.4l-1.2,0.9c-0.6-1.2-1.3-2-2.2-2.3c-2.1-0.6-4.1,1.1-4.8,3.6 c-0.7,2.6,0.3,5.1,2.2,5.6c1.5,0.4,2.8-0.2,3.6-0.5l0.4,0.8c-1,0.6-2.6,1.1-4.5,0.6c-2.8-0.8-4.6-3.9-3.7-7.1 C54.3,148.1,57.5,146.3,60.3,147.2z"></path> <path fill="#1A1A18" d="M64.8,160l1.4-11.3l1.9,0.2l-1.3,10.2l5.1,0.6l-0.1,1.1L64.8,160z"></path> <path fill="#1A1A18" d="M75.3,161l-0.2-11.3l7.1-0.1l0,1.1l-5.1,0l0.1,4.1l4.9-0.1l0,1.1l-4.9,0.1l0.1,4.2l5.1-0.2l0,1.1L75.3,161 z"></path> <path fill="#1A1A18" d="M93.4,159.3l-2.3-3.6l-4,0.7l-1,4.1l-1.2,0.2l3.2-12.2l0.5-0.1l6.9,10.4L93.4,159.3z M88.4,151.4l-1,3.9 l3.1-0.6L88.4,151.4z"></path> <path fill="#1A1A18" d="M96.8,150.2l2.7,7.5l-1.1,0.4l-3.8-10.8l0.5-0.2l9.4,5.2l-2.7-7.5l1.1-0.4l3.8,10.9l-0.5,0.2L96.8,150.2z"></path> <path fill="#1A1A18" d="M108,145.6l4,6.8l-1,0.6l-5.6-9.9l0.5-0.3l10.2,3.4l-4-6.8l1-0.6l5.6,10l-0.5,0.3L108,145.6z"></path> <path fill="#1A1A18" d="M122.3,145.8l-7-8.8l5.5-4.6l0.7,0.9l-4,3.2l2.5,3.2l3.8-3.2l0.7,0.8l-3.8,3.2l2.6,3.3l3.9-3.4l0.7,0.9 L122.3,145.8z"></path> <path fill="#1A1A18" d="M133,135.9c-1.5,1.7-3.6,1.9-5,1l0.7-1.3c1,0.8,2.7,0.7,3.6-0.4c0.9-1,1-2.4,0.1-3.2 c-0.8-0.7-1.7-0.5-3.3,0.7c-2,1.4-3.4,1.5-4.6,0.4c-1.4-1.3-1.2-3.5,0.2-5.1c1.4-1.6,3.3-1.7,4.5-1.1l-0.7,1.3 c-0.9-0.6-2.3-0.4-3.1,0.5c-0.8,0.9-0.9,2.1-0.1,2.8c0.7,0.6,1.4,0.4,2.9-0.7c2.2-1.6,3.7-1.6,5-0.3 C134.8,131.9,134.6,134.2,133,135.9z"></path> <path fill="#1A1A18" d="M140,126.8c-1.3,1.9-3.3,2.4-4.8,1.7l0.5-1.4c1.1,0.7,2.8,0.2,3.5-0.9c0.8-1.2,0.6-2.5-0.4-3.2 c-0.9-0.6-1.7-0.2-3.2,1.1c-1.8,1.7-3.2,2-4.5,1.1c-1.5-1-1.7-3.2-0.5-5s3-2.2,4.3-1.7l-0.5,1.4c-1-0.4-2.4,0-3,1 c-0.7,1-0.6,2.2,0.3,2.8c0.7,0.5,1.4,0.1,2.8-1.1c2-1.9,3.4-2.1,4.9-1.1C141.1,122.5,141.3,124.9,140,126.8z"></path> </g> <g> <path fill="#1A1A18" d="M14.8,67.3L4.5,64.1l1.9-6.2l0.7,0.2l-1.6,5l4.1,1.3l1.4-4.8l0.7,0.2l-1.5,4.8l4.2,1.3l1.4-5l0.7,0.2 L14.8,67.3z"></path> <path fill="#1A1A18" d="M9.9,49.3c0.7-1.5,1.8-2.3,2.7-2.8l0.5,1c-1.2,0.3-2.1,1.1-2.6,2.1c-1,2.1,0.2,4.7,2.6,5.9 c2.5,1.3,5.1,0.5,6.1-1.5c0.7-1.5,0.4-3.1,0.2-3.8l0.6-0.2c0.4,1.1,0.6,2.8-0.1,4.3c-1.3,2.6-4.4,3.8-7.3,2.4 C9.7,55.3,8.7,51.9,9.9,49.3z"></path> <path fill="#1A1A18" d="M26.6,43l-4.2-3.1l-3.3,4.7l4.2,3.1l-0.7,1l-8.7-6.4l0.7-1l4,2.9l3.3-4.7l-4-2.9l0.7-1l8.7,6.4L26.6,43z"></path> <path fill="#1A1A18" d="M24.5,30l7.2,7.2l-0.9,0.9l-7.2-7.2l-2.1,2.3L21,32.7l5.2-5.4l0.5,0.5L24.5,30z"></path> <path fill="#1A1A18" d="M35.5,33.6l-6.6-8.7l5-4l0.5,0.6l-4.1,3.1l2.6,3.5l3.9-3.1l0.5,0.6l-3.9,3.1l2.7,3.6l4-3.3l0.5,0.6 L35.5,33.6z"></path> <path fill="#1A1A18" d="M44.3,17.2l3.6,7.9l-0.7,0.3L42.6,15l10.6,5.1l-3.6-7.9l0.7-0.3l4.6,10.4L44.3,17.2z"></path> <path fill="#1A1A18" d="M64.9,19l-2.6-3.3l-4.5,1.2l-0.7,4.2l-0.9,0.2L58.4,9l7.8,9.7L64.9,19z M58.7,11.2l-0.8,4.9l3.9-1 L58.7,11.2z"></path> <path fill="#1A1A18" d="M69.3,8l1.2,10.3l-1.2,0.1L68.1,8.2L65,8.6l-0.1-0.8L72.3,7l0.1,0.8L69.3,8z"></path> <path fill="#1A1A18" d="M79.7,18.1c-2.3-0.1-4.2-1.9-4.1-4.7l0.2-6.6l1.3,0l-0.2,6.5c-0.1,2.4,1.1,4,2.8,4c1.7,0.1,3-1.4,3.1-3.8 l0.2-6.5l1.3,0l-0.2,6.6C84,16.6,82,18.2,79.7,18.1z M78.8,5.6c-0.5,0-0.8-0.4-0.7-0.9c0-0.5,0.3-0.8,0.8-0.8 c0.4,0,0.7,0.4,0.7,0.9C79.6,5.3,79.3,5.7,78.8,5.6z M81.6,5.8c-0.5,0-0.8-0.4-0.7-0.9c0-0.5,0.3-0.8,0.8-0.8 c0.4,0,0.7,0.4,0.7,0.9C82.3,5.4,82,5.8,81.6,5.8z"></path> <path fill="#1A1A18" d="M93.3,19.9l-3.6-6.1l1.6,0.3c1.3,0.3,2.7-0.3,3.1-2s-0.7-2.8-2.1-3l-2.1-0.4l-2,10.1L87,18.6l2.2-10.8 l3.4,0.7c2.2,0.5,3.4,2.2,3.1,4c-0.3,1.7-2.1,2.7-4,2.3l3.3,5.5L93.3,19.9z"></path> <path fill="#1A1A18" d="M96.7,20.9l3.7-10.4l1.1,0.4l-3.4,9.7l4.9,1.7l-0.3,0.7L96.7,20.9z"></path> <path fill="#1A1A18" d="M105,24.3l4.7-9.9l1.1,0.6l-4.7,9.9L105,24.3z"></path> <path fill="#1A1A18" d="M119,19.7c1.4,0.9,2,2.1,2.4,3.1l-1.1,0.3c-0.2-1.2-0.8-2.3-1.7-2.9c-2-1.3-4.6-0.3-6,1.9 c-1.5,2.4-1.1,5.1,0.7,6.3c1.4,0.9,2.9,0.8,3.7,0.6l0.1,0.6c-1.1,0.3-2.8,0.3-4.2-0.7c-2.4-1.6-3.1-4.9-1.4-7.7 C113.3,18.8,116.6,18.1,119,19.7z"></path> <path fill="#1A1A18" d="M123.1,37.4l3.5-3.9l-4.1-3.9l-3.5,3.9l-0.9-0.8l7.3-8.1l0.9,0.8l-3.3,3.7l4.1,3.9l3.3-3.7l0.9,0.8 l-7.3,8.1L123.1,37.4z"></path> <path fill="#1A1A18" d="M126.1,40.6l8.5-6.7l0.7,1l-8.5,6.7L126.1,40.6z M130.2,46.1l0.9-7.9l7.7,1.2l0.7,1l-7.3-1.3l-0.9,8.5 L130.2,46.1z"></path> <path fill="#1A1A18" d="M132.3,49.3l9.4-5.3l3.1,5.7l-0.7,0.4l-2.4-4.6l-3.8,2.1l2.4,4.4l-0.6,0.4l-2.4-4.4l-3.9,2.2l2.6,4.5 l-0.7,0.4L132.3,49.3z"></path> <path fill="#1A1A18" d="M136.6,58.1l9.9-4.2l0.5,1.2l-9.9,4.2L136.6,58.1z"></path> <path fill="#1A1A18" d="M149,62.9l-9.7,2.9l-0.3-1.2l9.7-2.9l-0.9-3l0.7-0.2l2.1,7.3l-0.7,0.2L149,62.9z"></path> </g> <g> <path fill="#1A1A18" d="M82.8,105.6c4.6-7.1,3.3-22.9-7.4-34.1S42,67.8,33.3,57.9c0,0-1.6,30.9,16.7,45.5 c10.7,8.6,18.6,10.3,24.2,8.8c-0.3-2.5-0.8-3.9-1.3-5.6c-1.4-4.7-3.3-9-6-13c-3.4-5.3-8.8-8.5-13.9-11.9c-2.1-1.5-4-3.2-5.4-5.3 l0.2-0.2c4.9,5.9,13,7.5,18.2,13.2c7.8,8.4,13.9,23.4,10.4,34.9c-0.2,0.6,0.2,1.2,0.7,1.3c1.3,0.2,3.3,0.6,4.7,0.7 c0.6,0.1,1.1-0.4,1.1-1c0-5.4-1.3-11.2-3.1-16.2C81,108.1,82,106.9,82.8,105.6z"></path> <polygon fill="#1A1A18" points="75.8,125.4 75.8,125.4 75.8,125.4 "></polygon> </g> <path fill="#1A1A18" d="M115,57.1c-1,3.9-6.2,6.8-15.7,13.2s-12,18.2-12,23.5c0,2.4-0.1,5.5,0.6,7.9c0.1-0.1,0.1-0.1,0.1-0.2 c2.5-3,5.8-4.8,8.7-6.9c7.5-5.6,8.6-10,10.5-18.1c0,0,0.3,0,0.3,0c0.8,8-2.8,15.6-9.7,19.7c-3.1,2.1-6.3,3.7-8.8,6.2 c-2,2-4.7,6.2-5.9,8c-0.3,0.5-0.2,1.1,0.3,1.4c0.8,0.4,2,0.8,2.8,1c0.5,0.2,1.1-0.2,1.2-0.7c0.4-2,1.5-6.5,4.4-6.3c0,0,0,0,0,0 c1.1,0.3,2.5,0.4,4.2,0.1c6-0.9,14.6-3.1,19.8-14.9C121,79.1,117.5,67.4,115,57.1z"></path> </g> </svg>